<mxfile host="app.diagrams.net" agent="Mozilla/5.0 (Windows NT 10.0; Win64; x64) AppleWebKit/537.36 (KHTML, like Gecko) Chrome/140.0.0.0 Safari/537.36 Edg/140.0.0.0" version="28.1.0">
  <diagram name="Page-1" id="KK1QUj_DOU8Sc8NNyH3E">
    <mxGraphModel dx="1546" dy="956" grid="0" gridSize="10" guides="1" tooltips="1" connect="1" arrows="1" fold="1" page="1" pageScale="1" pageWidth="1920" pageHeight="1200" math="0" shadow="0">
      <root>
        <mxCell id="0" />
        <mxCell id="1" parent="0" />
        <mxCell id="IZSlBB3E6kRMOvu6dQUG-1" value="" style="rounded=1;whiteSpace=wrap;html=1;absoluteArcSize=1;arcSize=14;strokeWidth=2;" vertex="1" parent="1">
          <mxGeometry x="69" y="77" width="879" height="538" as="geometry" />
        </mxCell>
        <mxCell id="IZSlBB3E6kRMOvu6dQUG-2" value="" style="rounded=1;whiteSpace=wrap;html=1;absoluteArcSize=1;arcSize=14;strokeWidth=2;" vertex="1" parent="1">
          <mxGeometry x="69" y="77" width="115" height="539" as="geometry" />
        </mxCell>
        <mxCell id="IZSlBB3E6kRMOvu6dQUG-3" value="主页" style="rounded=1;whiteSpace=wrap;html=1;absoluteArcSize=1;arcSize=14;strokeWidth=2;" vertex="1" parent="1">
          <mxGeometry x="86" y="102" width="76" height="46" as="geometry" />
        </mxCell>
        <mxCell id="IZSlBB3E6kRMOvu6dQUG-4" value="脚本" style="rounded=1;whiteSpace=wrap;html=1;absoluteArcSize=1;arcSize=14;strokeWidth=2;" vertex="1" parent="1">
          <mxGeometry x="86" y="172" width="76" height="46" as="geometry" />
        </mxCell>
        <mxCell id="IZSlBB3E6kRMOvu6dQUG-5" value="设置" style="rounded=1;whiteSpace=wrap;html=1;absoluteArcSize=1;arcSize=14;strokeWidth=2;" vertex="1" parent="1">
          <mxGeometry x="88.5" y="242" width="76" height="46" as="geometry" />
        </mxCell>
        <mxCell id="IZSlBB3E6kRMOvu6dQUG-6" value="" style="rounded=1;whiteSpace=wrap;html=1;absoluteArcSize=1;arcSize=14;strokeWidth=2;" vertex="1" parent="1">
          <mxGeometry x="207" y="106" width="229" height="142" as="geometry" />
        </mxCell>
        <mxCell id="IZSlBB3E6kRMOvu6dQUG-7" value="oas1" style="text;strokeColor=none;align=center;fillColor=none;html=1;verticalAlign=middle;whiteSpace=wrap;rounded=0;" vertex="1" parent="1">
          <mxGeometry x="214" y="109" width="70" height="39" as="geometry" />
        </mxCell>
        <mxCell id="IZSlBB3E6kRMOvu6dQUG-8" value="运行中" style="text;strokeColor=none;align=center;fillColor=none;html=1;verticalAlign=middle;whiteSpace=wrap;rounded=0;" vertex="1" parent="1">
          <mxGeometry x="286.5" y="109" width="70" height="39" as="geometry" />
        </mxCell>
        <mxCell id="IZSlBB3E6kRMOvu6dQUG-9" value="设置" style="rounded=1;whiteSpace=wrap;html=1;absoluteArcSize=1;arcSize=14;strokeWidth=2;" vertex="1" parent="1">
          <mxGeometry x="373" y="116" width="52" height="29" as="geometry" />
        </mxCell>
        <mxCell id="IZSlBB3E6kRMOvu6dQUG-10" value="魂土" style="rounded=1;whiteSpace=wrap;html=1;absoluteArcSize=1;arcSize=14;strokeWidth=2;" vertex="1" parent="1">
          <mxGeometry x="207" y="195" width="229" height="53" as="geometry" />
        </mxCell>
        <mxCell id="IZSlBB3E6kRMOvu6dQUG-11" value="已运行4时28分36秒" style="text;strokeColor=none;align=center;fillColor=none;html=1;verticalAlign=middle;whiteSpace=wrap;rounded=0;" vertex="1" parent="1">
          <mxGeometry x="214" y="148" width="116" height="39" as="geometry" />
        </mxCell>
        <mxCell id="IZSlBB3E6kRMOvu6dQUG-12" value="" style="rounded=1;whiteSpace=wrap;html=1;absoluteArcSize=1;arcSize=14;strokeWidth=2;" vertex="1" parent="1">
          <mxGeometry x="458" y="106" width="229" height="142" as="geometry" />
        </mxCell>
        <mxCell id="IZSlBB3E6kRMOvu6dQUG-13" value="oas2" style="text;strokeColor=none;align=center;fillColor=none;html=1;verticalAlign=middle;whiteSpace=wrap;rounded=0;" vertex="1" parent="1">
          <mxGeometry x="465" y="109" width="70" height="39" as="geometry" />
        </mxCell>
        <mxCell id="IZSlBB3E6kRMOvu6dQUG-14" value="运行中" style="text;strokeColor=none;align=center;fillColor=none;html=1;verticalAlign=middle;whiteSpace=wrap;rounded=0;" vertex="1" parent="1">
          <mxGeometry x="537.5" y="109" width="70" height="39" as="geometry" />
        </mxCell>
        <mxCell id="IZSlBB3E6kRMOvu6dQUG-15" value="设置" style="rounded=1;whiteSpace=wrap;html=1;absoluteArcSize=1;arcSize=14;strokeWidth=2;" vertex="1" parent="1">
          <mxGeometry x="624" y="116" width="52" height="29" as="geometry" />
        </mxCell>
        <mxCell id="IZSlBB3E6kRMOvu6dQUG-16" value="探索" style="rounded=1;whiteSpace=wrap;html=1;absoluteArcSize=1;arcSize=14;strokeWidth=2;" vertex="1" parent="1">
          <mxGeometry x="458" y="195" width="229" height="53" as="geometry" />
        </mxCell>
        <mxCell id="IZSlBB3E6kRMOvu6dQUG-17" value="已运行4时28分36秒" style="text;strokeColor=none;align=center;fillColor=none;html=1;verticalAlign=middle;whiteSpace=wrap;rounded=0;" vertex="1" parent="1">
          <mxGeometry x="465" y="148" width="116" height="39" as="geometry" />
        </mxCell>
        <mxCell id="IZSlBB3E6kRMOvu6dQUG-18" value="" style="rounded=1;whiteSpace=wrap;html=1;absoluteArcSize=1;arcSize=14;strokeWidth=2;" vertex="1" parent="1">
          <mxGeometry x="703" y="106" width="229" height="142" as="geometry" />
        </mxCell>
        <mxCell id="IZSlBB3E6kRMOvu6dQUG-19" value="oas3" style="text;strokeColor=none;align=center;fillColor=none;html=1;verticalAlign=middle;whiteSpace=wrap;rounded=0;" vertex="1" parent="1">
          <mxGeometry x="710" y="109" width="70" height="39" as="geometry" />
        </mxCell>
        <mxCell id="IZSlBB3E6kRMOvu6dQUG-20" value="未运行" style="text;strokeColor=none;align=center;fillColor=none;html=1;verticalAlign=middle;whiteSpace=wrap;rounded=0;" vertex="1" parent="1">
          <mxGeometry x="782.5" y="109" width="70" height="39" as="geometry" />
        </mxCell>
        <mxCell id="IZSlBB3E6kRMOvu6dQUG-21" value="设置" style="rounded=1;whiteSpace=wrap;html=1;absoluteArcSize=1;arcSize=14;strokeWidth=2;" vertex="1" parent="1">
          <mxGeometry x="869" y="116" width="52" height="29" as="geometry" />
        </mxCell>
        <mxCell id="IZSlBB3E6kRMOvu6dQUG-22" value="" style="rounded=1;whiteSpace=wrap;html=1;absoluteArcSize=1;arcSize=14;strokeWidth=2;" vertex="1" parent="1">
          <mxGeometry x="703" y="195" width="229" height="53" as="geometry" />
        </mxCell>
        <mxCell id="IZSlBB3E6kRMOvu6dQUG-23" value="已运行3天2时24分" style="text;strokeColor=none;align=center;fillColor=none;html=1;verticalAlign=middle;whiteSpace=wrap;rounded=0;" vertex="1" parent="1">
          <mxGeometry x="710" y="148" width="116" height="39" as="geometry" />
        </mxCell>
        <mxCell id="IZSlBB3E6kRMOvu6dQUG-24" value="" style="rounded=1;whiteSpace=wrap;html=1;absoluteArcSize=1;arcSize=14;strokeWidth=2;" vertex="1" parent="1">
          <mxGeometry x="207" y="273" width="229" height="142" as="geometry" />
        </mxCell>
        <mxCell id="IZSlBB3E6kRMOvu6dQUG-25" value="oas4" style="text;strokeColor=none;align=center;fillColor=none;html=1;verticalAlign=middle;whiteSpace=wrap;rounded=0;" vertex="1" parent="1">
          <mxGeometry x="214" y="276" width="70" height="39" as="geometry" />
        </mxCell>
        <mxCell id="IZSlBB3E6kRMOvu6dQUG-26" value="异常" style="text;strokeColor=none;align=center;fillColor=none;html=1;verticalAlign=middle;whiteSpace=wrap;rounded=0;" vertex="1" parent="1">
          <mxGeometry x="286.5" y="276" width="70" height="39" as="geometry" />
        </mxCell>
        <mxCell id="IZSlBB3E6kRMOvu6dQUG-27" value="设置" style="rounded=1;whiteSpace=wrap;html=1;absoluteArcSize=1;arcSize=14;strokeWidth=2;" vertex="1" parent="1">
          <mxGeometry x="373" y="283" width="52" height="29" as="geometry" />
        </mxCell>
        <mxCell id="IZSlBB3E6kRMOvu6dQUG-28" value="宴会" style="rounded=1;whiteSpace=wrap;html=1;absoluteArcSize=1;arcSize=14;strokeWidth=2;" vertex="1" parent="1">
          <mxGeometry x="207" y="362" width="229" height="53" as="geometry" />
        </mxCell>
        <mxCell id="IZSlBB3E6kRMOvu6dQUG-29" value="已运行4时28分36秒" style="text;strokeColor=none;align=center;fillColor=none;html=1;verticalAlign=middle;whiteSpace=wrap;rounded=0;" vertex="1" parent="1">
          <mxGeometry x="214" y="315" width="116" height="39" as="geometry" />
        </mxCell>
        <mxCell id="IZSlBB3E6kRMOvu6dQUG-30" value="" style="rounded=1;whiteSpace=wrap;html=1;absoluteArcSize=1;arcSize=14;strokeWidth=2;" vertex="1" parent="1">
          <mxGeometry x="458" y="271" width="229" height="142" as="geometry" />
        </mxCell>
        <mxCell id="IZSlBB3E6kRMOvu6dQUG-31" value="oas5" style="text;strokeColor=none;align=center;fillColor=none;html=1;verticalAlign=middle;whiteSpace=wrap;rounded=0;" vertex="1" parent="1">
          <mxGeometry x="465" y="274" width="70" height="39" as="geometry" />
        </mxCell>
        <mxCell id="IZSlBB3E6kRMOvu6dQUG-32" value="运行中" style="text;strokeColor=none;align=center;fillColor=none;html=1;verticalAlign=middle;whiteSpace=wrap;rounded=0;" vertex="1" parent="1">
          <mxGeometry x="537.5" y="274" width="70" height="39" as="geometry" />
        </mxCell>
        <mxCell id="IZSlBB3E6kRMOvu6dQUG-33" value="设置" style="rounded=1;whiteSpace=wrap;html=1;absoluteArcSize=1;arcSize=14;strokeWidth=2;" vertex="1" parent="1">
          <mxGeometry x="624" y="281" width="52" height="29" as="geometry" />
        </mxCell>
        <mxCell id="IZSlBB3E6kRMOvu6dQUG-34" value="魂土" style="rounded=1;whiteSpace=wrap;html=1;absoluteArcSize=1;arcSize=14;strokeWidth=2;" vertex="1" parent="1">
          <mxGeometry x="458" y="360" width="229" height="53" as="geometry" />
        </mxCell>
        <mxCell id="IZSlBB3E6kRMOvu6dQUG-35" value="已运行4时28分36秒" style="text;strokeColor=none;align=center;fillColor=none;html=1;verticalAlign=middle;whiteSpace=wrap;rounded=0;" vertex="1" parent="1">
          <mxGeometry x="465" y="313" width="116" height="39" as="geometry" />
        </mxCell>
        <mxCell id="IZSlBB3E6kRMOvu6dQUG-71" value="" style="rounded=1;whiteSpace=wrap;html=1;absoluteArcSize=1;arcSize=14;strokeWidth=2;" vertex="1" parent="1">
          <mxGeometry x="976" y="69.5" width="278" height="546.5" as="geometry" />
        </mxCell>
        <mxCell id="IZSlBB3E6kRMOvu6dQUG-76" value="" style="rounded=1;whiteSpace=wrap;html=1;absoluteArcSize=1;arcSize=14;strokeWidth=2;" vertex="1" parent="1">
          <mxGeometry x="997" y="96" width="229" height="142" as="geometry" />
        </mxCell>
        <mxCell id="IZSlBB3E6kRMOvu6dQUG-77" value="oas1" style="text;strokeColor=none;align=center;fillColor=none;html=1;verticalAlign=middle;whiteSpace=wrap;rounded=0;" vertex="1" parent="1">
          <mxGeometry x="1004" y="99" width="70" height="39" as="geometry" />
        </mxCell>
        <mxCell id="IZSlBB3E6kRMOvu6dQUG-78" value="运行中" style="text;strokeColor=none;align=center;fillColor=none;html=1;verticalAlign=middle;whiteSpace=wrap;rounded=0;" vertex="1" parent="1">
          <mxGeometry x="1076.5" y="99" width="70" height="39" as="geometry" />
        </mxCell>
        <mxCell id="IZSlBB3E6kRMOvu6dQUG-79" value="设置" style="rounded=1;whiteSpace=wrap;html=1;absoluteArcSize=1;arcSize=14;strokeWidth=2;" vertex="1" parent="1">
          <mxGeometry x="1163" y="106" width="52" height="29" as="geometry" />
        </mxCell>
        <mxCell id="IZSlBB3E6kRMOvu6dQUG-80" value="魂土" style="rounded=1;whiteSpace=wrap;html=1;absoluteArcSize=1;arcSize=14;strokeWidth=2;" vertex="1" parent="1">
          <mxGeometry x="997" y="185" width="229" height="53" as="geometry" />
        </mxCell>
        <mxCell id="IZSlBB3E6kRMOvu6dQUG-81" value="已运行4时28分36秒" style="text;strokeColor=none;align=center;fillColor=none;html=1;verticalAlign=middle;whiteSpace=wrap;rounded=0;" vertex="1" parent="1">
          <mxGeometry x="1004" y="138" width="116" height="39" as="geometry" />
        </mxCell>
        <mxCell id="IZSlBB3E6kRMOvu6dQUG-88" value="" style="rounded=1;whiteSpace=wrap;html=1;absoluteArcSize=1;arcSize=14;strokeWidth=2;" vertex="1" parent="1">
          <mxGeometry x="997" y="257.5" width="229" height="142" as="geometry" />
        </mxCell>
        <mxCell id="IZSlBB3E6kRMOvu6dQUG-89" value="oas2" style="text;strokeColor=none;align=center;fillColor=none;html=1;verticalAlign=middle;whiteSpace=wrap;rounded=0;" vertex="1" parent="1">
          <mxGeometry x="1004" y="260.5" width="70" height="39" as="geometry" />
        </mxCell>
        <mxCell id="IZSlBB3E6kRMOvu6dQUG-90" value="运行中" style="text;strokeColor=none;align=center;fillColor=none;html=1;verticalAlign=middle;whiteSpace=wrap;rounded=0;" vertex="1" parent="1">
          <mxGeometry x="1076.5" y="260.5" width="70" height="39" as="geometry" />
        </mxCell>
        <mxCell id="IZSlBB3E6kRMOvu6dQUG-91" value="设置" style="rounded=1;whiteSpace=wrap;html=1;absoluteArcSize=1;arcSize=14;strokeWidth=2;" vertex="1" parent="1">
          <mxGeometry x="1163" y="267.5" width="52" height="29" as="geometry" />
        </mxCell>
        <mxCell id="IZSlBB3E6kRMOvu6dQUG-92" value="探索" style="rounded=1;whiteSpace=wrap;html=1;absoluteArcSize=1;arcSize=14;strokeWidth=2;" vertex="1" parent="1">
          <mxGeometry x="997" y="346.5" width="229" height="53" as="geometry" />
        </mxCell>
        <mxCell id="IZSlBB3E6kRMOvu6dQUG-93" value="已运行4时28分36秒" style="text;strokeColor=none;align=center;fillColor=none;html=1;verticalAlign=middle;whiteSpace=wrap;rounded=0;" vertex="1" parent="1">
          <mxGeometry x="1004" y="299.5" width="116" height="39" as="geometry" />
        </mxCell>
        <mxCell id="IZSlBB3E6kRMOvu6dQUG-99" value="" style="rounded=1;whiteSpace=wrap;html=1;absoluteArcSize=1;arcSize=14;strokeWidth=2;" vertex="1" parent="1">
          <mxGeometry x="997" y="432" width="229" height="142" as="geometry" />
        </mxCell>
        <mxCell id="IZSlBB3E6kRMOvu6dQUG-100" value="oas3" style="text;strokeColor=none;align=center;fillColor=none;html=1;verticalAlign=middle;whiteSpace=wrap;rounded=0;" vertex="1" parent="1">
          <mxGeometry x="1004" y="435" width="70" height="39" as="geometry" />
        </mxCell>
        <mxCell id="IZSlBB3E6kRMOvu6dQUG-101" value="未运行" style="text;strokeColor=none;align=center;fillColor=none;html=1;verticalAlign=middle;whiteSpace=wrap;rounded=0;" vertex="1" parent="1">
          <mxGeometry x="1076.5" y="435" width="70" height="39" as="geometry" />
        </mxCell>
        <mxCell id="IZSlBB3E6kRMOvu6dQUG-102" value="设置" style="rounded=1;whiteSpace=wrap;html=1;absoluteArcSize=1;arcSize=14;strokeWidth=2;" vertex="1" parent="1">
          <mxGeometry x="1163" y="442" width="52" height="29" as="geometry" />
        </mxCell>
        <mxCell id="IZSlBB3E6kRMOvu6dQUG-103" value="" style="rounded=1;whiteSpace=wrap;html=1;absoluteArcSize=1;arcSize=14;strokeWidth=2;" vertex="1" parent="1">
          <mxGeometry x="997" y="521" width="229" height="53" as="geometry" />
        </mxCell>
        <mxCell id="IZSlBB3E6kRMOvu6dQUG-104" value="已运行3天2时24分" style="text;strokeColor=none;align=center;fillColor=none;html=1;verticalAlign=middle;whiteSpace=wrap;rounded=0;" vertex="1" parent="1">
          <mxGeometry x="1004" y="474" width="116" height="39" as="geometry" />
        </mxCell>
        <mxCell id="IZSlBB3E6kRMOvu6dQUG-72" value="主页" style="rounded=1;whiteSpace=wrap;html=1;absoluteArcSize=1;arcSize=14;strokeWidth=2;" vertex="1" parent="1">
          <mxGeometry x="987" y="563" width="76" height="46" as="geometry" />
        </mxCell>
        <mxCell id="IZSlBB3E6kRMOvu6dQUG-73" value="脚本" style="rounded=1;whiteSpace=wrap;html=1;absoluteArcSize=1;arcSize=14;strokeWidth=2;" vertex="1" parent="1">
          <mxGeometry x="1076.5" y="560" width="76" height="46" as="geometry" />
        </mxCell>
        <mxCell id="IZSlBB3E6kRMOvu6dQUG-75" value="设置" style="rounded=1;whiteSpace=wrap;html=1;absoluteArcSize=1;arcSize=14;strokeWidth=2;" vertex="1" parent="1">
          <mxGeometry x="1172" y="560" width="76" height="46" as="geometry" />
        </mxCell>
        <mxCell id="IZSlBB3E6kRMOvu6dQUG-105" value="" style="rounded=1;whiteSpace=wrap;html=1;absoluteArcSize=1;arcSize=14;strokeWidth=2;" vertex="1" parent="1">
          <mxGeometry x="1239" y="82" width="9" height="458" as="geometry" />
        </mxCell>
      </root>
    </mxGraphModel>
  </diagram>
</mxfile>
